<svg xmlns="http://www.w3.org/2000/svg" xmlns:xlink="http://www.w3.org/1999/xlink" viewBox="0 0 232.67 269.01"><defs><style>.cls-1{fill:url(#New_Gradient_Swatch_2);}</style><linearGradient id="New_Gradient_Swatch_2" x1="103.37" y1="31.81" x2="131.98" y2="258.35" gradientUnits="userSpaceOnUse"><stop offset="0" stop-color="#03c9a9"/><stop offset="1" stop-color="#0071bc"/></linearGradient></defs><title>short-logo</title><g id="Слой_2" data-name="Слой 2"><g id="Режим_изоляции" data-name="Режим изоляции"><path id="_Составной_контур_" data-name="&lt;Составной контур&gt;" class="cls-1" d="M98.17,269A25.49,25.49,0,1,1,122,234.66l.58,1.54H189a29,29,0,0,0,0-58H49.93l-.57,1.54A25.45,25.45,0,1,1,49,161l.82,2,2-.6a29,29,0,0,0-8.18-56.85,43.66,43.66,0,1,1,0-87.32h66.41l.58-1.54a25.49,25.49,0,1,1,0,17.72l-.58-1.54H43.66a29,29,0,0,0,0,58H182.75l.58-1.54a25.44,25.44,0,1,1,.36,18.73l-.82-2-2,.6A29,29,0,0,0,189,163.53a43.66,43.66,0,0,1,0,87.31H122.61l-.58,1.54A25.6,25.6,0,0,1,98.17,269Zm0-36.34A10.85,10.85,0,1,0,109,243.53,10.86,10.86,0,0,0,98.17,232.68ZM25.49,160a10.85,10.85,0,1,0,10.85,10.85A10.86,10.86,0,0,0,25.49,160Zm53.7-50.76a43.35,43.35,0,0,1,0,50.55l-2.67,3.75h79.65l-2.67-3.75a43.35,43.35,0,0,1,0-50.55l2.68-3.75H76.51Zm128-21.92A10.85,10.85,0,1,0,218,98.17,10.86,10.86,0,0,0,207.19,87.32ZM134.51,14.64a10.85,10.85,0,1,0,10.85,10.85A10.86,10.86,0,0,0,134.51,14.64Z"/></g></g></svg>