<svg width="65" xmlns="http://www.w3.org/2000/svg" viewBox="0 0 64.11 46.06"><g data-name="Слой 2"><g data-name="Слой 1"><path d="M52.38 11.72a1.42 1.42 0 0 0-2 0L41.07 21l-9.3-9.3a1.42 1.42 0 1 0-2 2l9.3 9.3-9.3 9.3a1.42 1.42 0 1 0 2 2l9.3-9.3 9.3 9.3a1.42 1.42 0 1 0 2-2L43.08 23l9.3-9.3a1.42 1.42 0 0 0 0-1.98z"/><path d="M57.31 0h-35.5a6.81 6.81 0 0 0-5 2.18L1.8 18.42a6.82 6.82 0 0 0 0 9.23l15 16.24a6.81 6.81 0 0 0 5 2.18h35.5a6.8 6.8 0 0 0 6.79-6.79V6.79A6.8 6.8 0 0 0 57.31 0zm4 39.27a4 4 0 0 1-4 4h-35.5A4 4 0 0 1 18.9 42l-15-16.24a4 4 0 0 1 0-5.38l15-16.28a4 4 0 0 1 2.91-1.27h35.5a4 4 0 0 1 4 4z"/></g></g></svg>