<svg xmlns="http://www.w3.org/2000/svg" xmlns:xlink="http://www.w3.org/1999/xlink" viewBox="0 0 872.47 269.01"><defs><style>.cls-1{fill:url(#New_Gradient_Swatch_2);}.cls-2{fill:#fff;}</style><linearGradient id="New_Gradient_Swatch_2" x1="103.37" y1="31.81" x2="131.98" y2="258.35" gradientUnits="userSpaceOnUse"><stop offset="0" stop-color="#03c9a9"/><stop offset="1" stop-color="#0071bc"/></linearGradient></defs><title>logo</title><g id="Слой_2" data-name="Слой 2"><g id="Layer_1" data-name="Layer 1"><g id="_Группа_" data-name="&lt;Группа&gt;"><path id="_Составной_контур_" data-name="&lt;Составной контур&gt;" class="cls-1" d="M98.17,269A25.49,25.49,0,1,1,122,234.66l.58,1.54H189a29,29,0,0,0,0-58H49.93l-.57,1.54A25.45,25.45,0,1,1,49,161l.82,2,2-.6a29,29,0,0,0-8.18-56.85,43.66,43.66,0,1,1,0-87.32h66.41l.58-1.54a25.49,25.49,0,1,1,0,17.72l-.58-1.54H43.66a29,29,0,0,0,0,58H182.75l.58-1.54a25.44,25.44,0,1,1,.36,18.73l-.82-2-2,.6A29,29,0,0,0,189,163.53a43.66,43.66,0,0,1,0,87.31H122.61l-.58,1.54A25.6,25.6,0,0,1,98.17,269Zm0-36.34A10.85,10.85,0,1,0,109,243.53,10.86,10.86,0,0,0,98.17,232.68ZM25.49,160a10.85,10.85,0,1,0,10.85,10.85A10.86,10.86,0,0,0,25.49,160Zm53.7-50.76a43.35,43.35,0,0,1,0,50.55l-2.67,3.75h79.65l-2.67-3.75a43.35,43.35,0,0,1,0-50.55l2.68-3.75H76.51Zm128-21.92A10.85,10.85,0,1,0,218,98.17,10.86,10.86,0,0,0,207.19,87.32ZM134.51,14.64a10.85,10.85,0,1,0,10.85,10.85A10.86,10.86,0,0,0,134.51,14.64Z"/><g id="_Группа_2" data-name="&lt;Группа&gt;"><path id="_Составной_контур_2" data-name="&lt;Составной контур&gt;" class="cls-2" d="M327.81,215.18c0-7.07-4.74-11.08-13.08-11.08H300.86V236h7.21V226.9h7.34l5.06,9.13h8.16l-6.79-10.53C325.72,223.67,327.81,220.11,327.81,215.18Zm-13.08,5.71h-6.66v-10.8h6.66c4,0,6.25,1.78,6.25,5.33S318.69,220.88,314.73,220.88Z"/><polygon id="_Контур_" data-name="&lt;Контур&gt;" class="cls-2" points="355.32 222.98 370.68 222.98 370.68 217 355.32 217 355.32 210.08 372.42 210.08 372.42 204.09 348.11 204.09 348.11 236.02 372.92 236.02 372.92 230.05 355.32 230.05 355.32 222.98"/><polygon id="_Контур_2" data-name="&lt;Контур&gt;" class="cls-2" points="389.82 210.21 399.54 210.21 399.54 236.02 406.74 236.02 406.74 210.21 416.5 210.21 416.5 204.09 389.82 204.09 389.82 210.21"/><path id="_Составной_контур_3" data-name="&lt;Составной контур&gt;" class="cls-2" d="M441.83,204.09,428,236h7.43l2.51-6.21h14.77l2.51,6.21h7.7l-13.64-31.93ZM440.28,224l5.06-12.4,5,12.4Z"/><rect id="_Контур_3" data-name="&lt;Контур&gt;" class="cls-2" x="480.49" y="204.09" width="7.21" height="31.93"/><polygon id="_Контур_4" data-name="&lt;Контур&gt;" class="cls-2" points="516.26 204.09 509.05 204.09 509.05 236.02 529.94 236.02 529.94 229.73 516.26 229.73 516.26 204.09"/><path id="_Контур_5" data-name="&lt;Контур&gt;" class="cls-2" d="M582.16,212.54c0-1.73,1.64-2.61,4.06-2.61s6.56,1.28,9.94,3.29l2.79-6a22.8,22.8,0,0,0-12.13-3.47c-7.39,0-12.36,3.64-12.36,9.44,0,11.3,17,7.8,17,13.82,0,2-1.78,3.05-4.74,3.05-3.38,0-8-1.87-11.31-4.79l-2.87,5.88a22.43,22.43,0,0,0,14.09,5.05c7.07,0,12.5-3.36,12.5-9.61C599.17,215.13,582.16,218.42,582.16,212.54Z"/><polygon id="_Контур_6" data-name="&lt;Контур&gt;" class="cls-2" points="630.39 218.42 622.22 204.09 614.98 204.09 626.79 225.91 626.79 236.02 634 236.02 634 225.71 645.63 204.09 638.37 204.09 630.39 218.42"/><path id="_Контур_7" data-name="&lt;Контур&gt;" class="cls-2" d="M669.12,212.54c0-1.73,1.64-2.61,4.06-2.61s6.56,1.28,9.94,3.29l2.79-6a22.8,22.8,0,0,0-12.13-3.47c-7.39,0-12.36,3.64-12.36,9.44,0,11.3,17,7.8,17,13.82,0,2-1.78,3.05-4.74,3.05-3.38,0-8-1.87-11.31-4.79l-2.87,5.88a22.43,22.43,0,0,0,14.09,5.05c7.07,0,12.5-3.36,12.5-9.61C686.13,215.13,669.12,218.42,669.12,212.54Z"/><polygon id="_Контур_8" data-name="&lt;Контур&gt;" class="cls-2" points="702.8 210.21 712.52 210.21 712.52 236.02 719.72 236.02 719.72 210.21 729.49 210.21 729.49 204.09 702.8 204.09 702.8 210.21"/><polygon id="_Контур_9" data-name="&lt;Контур&gt;" class="cls-2" points="754.57 222.98 769.93 222.98 769.93 217 754.57 217 754.57 210.08 771.67 210.08 771.67 204.09 747.36 204.09 747.36 236.02 772.17 236.02 772.17 230.05 754.57 230.05 754.57 222.98"/><polygon id="_Контур_10" data-name="&lt;Контур&gt;" class="cls-2" points="809.72 223.62 800.42 204.09 792.34 204.09 792.34 236.02 798.86 236.02 798.86 214.5 807.34 232.78 812.05 232.78 820.53 214.5 820.53 236.02 827 236.02 827 204.09 818.98 204.09 809.72 223.62"/><path id="_Контур_11" data-name="&lt;Контур&gt;" class="cls-2" d="M855.49,212.54c0-1.73,1.64-2.61,4.06-2.61s6.56,1.28,9.94,3.29l2.79-6a22.81,22.81,0,0,0-12.13-3.47c-7.39,0-12.36,3.64-12.36,9.44,0,11.3,17,7.8,17,13.82,0,2-1.78,3.05-4.74,3.05-3.38,0-8-1.87-11.31-4.79l-2.87,5.88A22.43,22.43,0,0,0,860,236.25c7.07,0,12.5-3.36,12.5-9.61C872.5,215.13,855.49,218.42,855.49,212.54Z"/><path id="_Составной_контур_4" data-name="&lt;Составной контур&gt;" class="cls-2" d="M628.38,139.92q2.88-9.67,2.88-23.5v-33q0-13.79-2.88-23.4a34.55,34.55,0,0,0-9.31-15.63,38.43,38.43,0,0,0-16.69-8.82q-10.26-2.79-24.84-2.8H518.26q-14.59,0-24.75,2.8a38.39,38.39,0,0,0-16.59,8.82A35.28,35.28,0,0,0,467.51,60q-3,9.61-3,23.4v33q0,13.82,3,23.5a35.24,35.24,0,0,0,9.41,15.74,37.82,37.82,0,0,0,16.59,8.73q10.18,2.69,24.75,2.68h59.28q14.58,0,24.84-2.68a37.87,37.87,0,0,0,16.69-8.73A34.53,34.53,0,0,0,628.38,139.92Zm-26.47-25.61a54,54,0,0,1-1.25,12.57,17.29,17.29,0,0,1-4.12,8.06,16,16,0,0,1-7.78,4.22,51.54,51.54,0,0,1-12.37,1.24h-57A51.58,51.58,0,0,1,507,139.16a16,16,0,0,1-7.77-4.22,17.23,17.23,0,0,1-4.13-8.06,54,54,0,0,1-1.24-12.57V85.54A54,54,0,0,1,495.14,73a17.23,17.23,0,0,1,4.13-8.06A16.08,16.08,0,0,1,507,60.68a51.36,51.36,0,0,1,12.37-1.25h57a51.31,51.31,0,0,1,12.37,1.25,16.14,16.14,0,0,1,7.78,4.23A17.29,17.29,0,0,1,600.66,73a53.88,53.88,0,0,1,1.25,12.57Z"/><path id="_Контур_12" data-name="&lt;Контур&gt;" class="cls-2" d="M760.58,152.49l62.93-115.3A4,4,0,0,0,824,34c-.32-.83-1.25-1.25-2.78-1.25H796.07a4.41,4.41,0,0,0-4.41,2.5L736.22,138.48a2.37,2.37,0,0,1-2.12,1.34h-1a2.27,2.27,0,0,1-2.3-1.34L674.63,35.26A5.66,5.66,0,0,0,673,33.35a5.24,5.24,0,0,0-2.79-.58H646c-1.66,0-2.65.42-3,1.25a4,4,0,0,0,.48,3.17l63.7,115.3q4.79,8.83,9.69,11.71t12.37,2.87h11.12a19.88,19.88,0,0,0,10.75-2.87Q755.79,161.32,760.58,152.49Z"/><path id="_Контур_13" data-name="&lt;Контур&gt;" class="cls-2" d="M441.62,153.42A26,26,0,0,0,445,142.71a9,9,0,0,0,.32-2.92H355.71a51.23,51.23,0,0,1-12.34-1.3,15.17,15.17,0,0,1-7.8-4.22,16.11,16.11,0,0,1-4.06-8,56.8,56.8,0,0,1-1.3-12.83V86.19a55.29,55.29,0,0,1,1.3-12.67,16.87,16.87,0,0,1,4.06-8,18,18,0,0,1,7.8-4.22,64.21,64.21,0,0,1,12.34-1h85.42a5.72,5.72,0,0,0,1.79-.33h2.44a5.54,5.54,0,0,0-.32-2.27c.16-.16.16-.16,0-.33v-.33a26.89,26.89,0,0,0-27-24.36h-63.5c-9.74,0-18,.81-24.69,2.92a35.34,35.34,0,0,0-16.57,8.77A33.67,33.67,0,0,0,303.9,60c-2.11,6.34-3.09,14.13-3.09,23.23v33.29c0,9.09,1,16.89,3.09,23.22a34.21,34.21,0,0,0,9.42,15.75q6.33,6.09,16.57,8.77c6.66,1.95,14.94,2.76,24.69,2.76h63.5A26.89,26.89,0,0,0,441.62,153.42Z"/><path id="_Контур_14" data-name="&lt;Контур&gt;" class="cls-2" d="M846.16,33.16h-.32c-.16-.16-.16-.16-.33,0a6.31,6.31,0,0,0-2.44-.33V162.92c0,2.76,1.46,4.22,4.39,4.22h20.79c2.76,0,4.22-1.46,4.22-4.22V62.07A28.85,28.85,0,0,0,846.16,33.16Z"/></g></g></g></g></svg>