<svg width="28" xmlns="http://www.w3.org/2000/svg" viewBox="0 0 34.38 48.26">
  <g data-name="Слой 2">
    <path d="M34.28 39.18l-2.43-6V21a14.66 14.66 0 0 0-10-13.91V4.61a4.62 4.62 0 0 0-9.23 0v2.5A14.63 14.63 0 0 0 2.54 21v12.14l-2.43 6a1.42 1.42 0 0 0 1.31 1.95h10v1.34a5.8 5.8 0 0 0 11.6 0v-1.3H33a1.42 1.42 0 0 0 1.31-1.95zM15.41 4.61a1.78 1.78 0 0 1 3.56 0v1.86a14.91 14.91 0 0 0-3.56 0zm-1.08 4.94a12 12 0 0 1 5.72 0A11.84 11.84 0 0 1 29 21v11H5.37V21a11.81 11.81 0 0 1 8.96-11.45zm5.83 32.92a3 3 0 0 1-5.93 0v-1.34h5.93zm1.45-4.17H3.52l1.39-3.46h24.56l1.39 3.46z" fill="#fff" data-name="Слой 1"/>
  </g>
</svg>
