<svg width="45" xmlns="http://www.w3.org/2000/svg" viewBox="0 0 57.18 32.57">
  <g data-name="Слой 2">
    <g data-name="Слой 1" fill="#fff">
      <path d="M28.59 24.92a8.64 8.64 0 1 1 8.63-8.63 8.64 8.64 0 0 1-8.63 8.63zm0-14.44a5.8 5.8 0 1 0 5.8 5.8 5.81 5.81 0 0 0-5.8-5.79z"/>
      <path d="M28.59 32.57a25.17 25.17 0 0 1-15.3-5.47L.56 17.42a1.42 1.42 0 0 1 0-2.26l12.73-9.69c9.59-7.3 21-7.29 30.61 0l12.73 9.69a1.42 1.42 0 0 1 0 2.26L43.9 27.1a25.17 25.17 0 0 1-15.31 5.47zM3.76 16.29L15 24.85c8.51 6.48 18.67 6.48 27.18 0l11.25-8.56-11.25-8.56c-8.51-6.48-18.67-6.48-27.18 0z"/>
    </g>
  </g>
</svg>
