<svg width="35" xmlns="http://www.w3.org/2000/svg" viewBox="0 0 39.47 41.52">
  <g data-name="Слой 2" fill="#fff">
    <path d="M37.91 14.37L22.74 1.12a4.58 4.58 0 0 0-6 0L1.56 14.37A4.57 4.57 0 0 0 0 17.81V40.1a1.42 1.42 0 0 0 1.42 1.42h11.42a1.42 1.42 0 0 0 1.42-1.42V30A1.74 1.74 0 0 1 16 28.22h7.49A1.74 1.74 0 0 1 25.21 30v10.1a1.42 1.42 0 0 0 1.42 1.42h11.43a1.42 1.42 0 0 0 1.42-1.42V17.81a4.57 4.57 0 0 0-1.57-3.44zm-1.27 24.31H28V30a4.58 4.58 0 0 0-4.57-4.57H16A4.58 4.58 0 0 0 11.42 30v8.73H2.83V17.81a1.74 1.74 0 0 1 .59-1.31L18.6 3.26a1.74 1.74 0 0 1 2.28 0L36 16.5a1.74 1.74 0 0 1 .59 1.31z" data-name="Слой 1"/>
  </g>
</svg>
