<svg width="29" xmlns="http://www.w3.org/2000/svg" viewBox="0 0 36.06 46.71">
  <g data-name="Слой 2">
    <g data-name="Слой 1" fill="#fff">
      <path d="M34.64 46.71H1.42A1.42 1.42 0 0 1 0 45.29V1.42A1.42 1.42 0 0 1 2.25.27l3.32 2.4L8.89.27a1.42 1.42 0 0 1 1.66 0l3.32 2.4L17.2.27a1.42 1.42 0 0 1 1.66 0l3.32 2.4 3.33-2.4a1.42 1.42 0 0 1 1.66 0l3.32 2.4 3.32-2.4a1.42 1.42 0 0 1 2.25 1.15v43.87a1.42 1.42 0 0 1-1.42 1.42zM2.83 43.88h30.39V4.19l-1.9 1.38a1.42 1.42 0 0 1-1.66 0l-3.32-2.4L23 5.57a1.42 1.42 0 0 1-1.66 0L18 3.17l-3.32 2.4a1.42 1.42 0 0 1-1.66 0l-3.3-2.4-3.32 2.4a1.42 1.42 0 0 1-1.66 0L2.83 4.19z"/>
      <path d="M29.28 18.73H6.78a1.42 1.42 0 0 1 0-2.83h22.5a1.42 1.42 0 1 1 0 2.83zM24.46 26.55H11.6a1.42 1.42 0 1 1 0-2.83h12.86a1.42 1.42 0 1 1 0 2.83zM24.46 34.36H11.6a1.42 1.42 0 1 1 0-2.83h12.86a1.42 1.42 0 1 1 0 2.83z"/>
    </g>
  </g>
</svg>
