<svg width="35" xmlns="http://www.w3.org/2000/svg" viewBox="0 0 46.71 46.71">
  <g data-name="Слой 2">
    <g data-name="Слой 1" fill="#fff">
      <path d="M39.65 0H7.06A7.07 7.07 0 0 0 0 7.06v32.59a7.07 7.07 0 0 0 7.06 7.06h32.59a7.07 7.07 0 0 0 7.06-7.06V7.06A7.07 7.07 0 0 0 39.65 0zm4.23 7.06v14.88H24.77V2.83h14.88a4.23 4.23 0 0 1 4.23 4.23zM7.06 2.83h14.88v19.1H2.83V7.06a4.23 4.23 0 0 1 4.23-4.23zM2.83 39.65V24.77h19.1v19.1H7.06a4.23 4.23 0 0 1-4.23-4.22zm36.81 4.23H24.77V24.77h19.1v14.88a4.23 4.23 0 0 1-4.22 4.23z"/>
      <path d="M11.29 11.04v5.8H13v-8h-1.49l-2.52 2.54.97 1.01 1.33-1.35zm20.93.12a2.86 2.86 0 0 1 2.15-.92c.66 0 1.3.35 1.3 1 0 1-1 1.81-4.23 4.23v1.33h6v-1.5h-3.26c2.07-1.51 3.2-2.7 3.2-4.07 0-1.6-1.36-2.55-3.06-2.55A4.08 4.08 0 0 0 31.24 10zM13.54 33.72a2 2 0 0 0 1.75-1.82c0-1.33-1.15-2.17-3-2.17A3.94 3.94 0 0 0 9.21 31l.85 1.07a2.88 2.88 0 0 1 2-.83c.84 0 1.49.31 1.49.95S13 33 12.1 33h-1v1.54h1c1.12 0 1.61.29 1.61.92s-.54 1-1.51 1a3.18 3.18 0 0 1-2.2-.9l-.9 1.14a4 4 0 0 0 3.15 1.3c1.92 0 3.15-1 3.15-2.35a2 2 0 0 0-1.86-1.93zm23.15-3.88h-2.35l-3.18 5v1.34H35v1.66h1.7v-1.65h1v-1.5h-1zM35 34.69h-2.17L35 31.36z"/>
    </g>
  </g>
</svg>
