<svg width="30" xmlns="http://www.w3.org/2000/svg" viewBox="0 0 35.71 41.83">
  <g data-name="Слой 2">
    <g data-name="Слой 1" fill="#fff">
      <path d="M25.11 24.41h-14.5a1.42 1.42 0 0 0 0 2.83h14.5a1.42 1.42 0 0 0 0-2.83zm0-6.57h-14.5a1.42 1.42 0 0 0 0 2.83h14.5a1.42 1.42 0 0 0 0-2.83zm0 12.65h-14.5a1.42 1.42 0 0 0 0 2.83h14.5a1.42 1.42 0 0 0 0-2.83zM6.44 5.19a1.42 1.42 0 1 0 0 2.81h25a1.42 1.42 0 1 0 0-2.83z"/>
      <path d="M34.3 10.64H6.74A3.88 3.88 0 0 1 4 9.49a3.84 3.84 0 0 1-1.17-2.75 3.91 3.91 0 0 1 3.9-3.9H34.3a1.42 1.42 0 1 0 0-2.84H6.74A6.74 6.74 0 0 0 0 6.74v26.18a8.92 8.92 0 0 0 8.91 8.91H34.3a1.42 1.42 0 0 0 1.42-1.42V12.06a1.42 1.42 0 0 0-1.42-1.42zM8.91 39a6.08 6.08 0 0 1-6.08-6.08v-20.7a6.67 6.67 0 0 0 3.9 1.25h26.15V39z"/>
    </g>
  </g>
</svg>
