<svg width="35" xmlns="http://www.w3.org/2000/svg" viewBox="0 0 45.29 45.28">
  <g data-name="Слой 2">
    <g data-name="Слой 1" fill="#fff">
      <path d="M21.37 8.11A13.16 13.16 0 0 0 12 12a1.42 1.42 0 1 0 2 2 10.41 10.41 0 0 1 14.72 0 1.42 1.42 0 0 0 2-2 13.16 13.16 0 0 0-9.35-3.89z"/>
      <path d="M44.88 42.87l-7.45-7.45a21.32 21.32 0 0 0-1-29.17 21.38 21.38 0 1 0-1.05 31.17l7.45 7.45a1.42 1.42 0 0 0 2-2zM8.26 34.46A18.53 18.53 0 0 1 34.47 8.25 18.53 18.53 0 0 1 8.26 34.46z"/>
    </g>
  </g>
</svg>
